<svg width="121" height="41" viewBox="0 0 121 41" fill="none" xmlns="http://www.w3.org/2000/svg">
<rect x="1.1936" y="1.47021" width="119" height="39" rx="5.5" fill="black"/>
<rect x="1.1936" y="1.47021" width="119" height="39" rx="5.5" stroke="#A6A6A6"/>
<path d="M25.3981 21.7332C25.4102 20.8133 25.6605 19.9113 26.1257 19.1112C26.5908 18.3111 27.2557 17.6389 28.0584 17.1571C27.5484 16.446 26.8757 15.8609 26.0936 15.4481C25.3114 15.0353 24.4415 14.8062 23.5528 14.779C21.6571 14.5848 19.8194 15.8865 18.8534 15.8865C17.8687 15.8865 16.3814 14.7983 14.7798 14.8305C13.7438 14.8632 12.7342 15.1573 11.8493 15.6842C10.9644 16.211 10.2344 16.9527 9.73034 17.837C7.54712 21.5274 9.17561 26.951 11.267 29.9341C12.3134 31.3948 13.5362 33.0264 15.1364 32.9686C16.7022 32.9052 17.287 31.9938 19.1771 31.9938C21.0497 31.9938 21.5984 32.9686 23.231 32.9318C24.9112 32.9052 25.9698 31.4646 26.9795 29.99C27.7313 28.9492 28.3098 27.7989 28.6936 26.5817C27.7174 26.1786 26.8844 25.5039 26.2984 24.6417C25.7123 23.7795 25.3992 22.768 25.3981 21.7332Z" fill="white"/>
<path d="M22.3144 12.8173C23.2305 11.7436 23.6819 10.3636 23.5726 8.97021C22.173 9.11373 20.8801 9.76681 19.9516 10.7993C19.4976 11.3037 19.1499 11.8905 18.9284 12.5262C18.7068 13.1619 18.6158 13.834 18.6605 14.504C19.3605 14.5111 20.0531 14.3629 20.686 14.0708C21.3189 13.7786 21.8757 13.35 22.3144 12.8173Z" fill="white"/>
<path d="M37.4846 9.47168H39.5544C41.343 9.47168 42.2131 10.5352 42.2131 12.4644C42.2131 14.3936 41.3342 15.4702 39.5544 15.4702H37.4846V9.47168ZM38.4822 10.311V14.6309H39.4446C40.6311 14.6309 41.1892 13.9146 41.1892 12.4775C41.1892 11.0317 40.6267 10.311 39.4446 10.311H38.4822ZM45.3684 10.7461C46.5813 10.7461 47.4294 11.5327 47.4294 12.8379V13.4399C47.4294 14.7891 46.5813 15.5493 45.3684 15.5493C44.1379 15.5493 43.2986 14.7979 43.2986 13.4443V12.8423C43.2986 11.5723 44.1511 10.7461 45.3684 10.7461ZM45.3728 11.5327C44.6785 11.5327 44.283 12.1128 44.283 12.8906V13.4092C44.283 14.187 44.6521 14.7627 45.3728 14.7627C46.0847 14.7627 46.4495 14.1914 46.4495 13.4092V12.8906C46.4495 12.1128 46.0671 11.5327 45.3728 11.5327ZM54.5925 10.8252L53.3708 15.4702H52.3777L51.4065 12.0425H51.3801L50.4265 15.4702H49.429L48.1545 10.8252H49.2048L49.9519 14.3672H49.9958L50.9319 10.8252H51.8503L52.8127 14.3672H52.8567L53.6169 10.8252H54.5925ZM55.5593 15.4702V10.8252H56.5173V11.6602H56.5657C56.6843 11.2954 57.0227 10.7549 57.9631 10.7549C58.8992 10.7549 59.5276 11.2734 59.5276 12.3325V15.4702H58.552V12.6182C58.552 11.9106 58.1829 11.5854 57.6335 11.5854C56.9128 11.5854 56.5349 12.1392 56.5349 12.8906V15.4702H55.5593ZM61.0042 15.4702V9.15527H61.9797V15.4702H61.0042ZM65.3284 10.7461C66.5413 10.7461 67.3894 11.5327 67.3894 12.8379V13.4399C67.3894 14.7891 66.5413 15.5493 65.3284 15.5493C64.0979 15.5493 63.2585 14.7979 63.2585 13.4443V12.8423C63.2585 11.5723 64.1111 10.7461 65.3284 10.7461ZM65.3328 11.5327C64.6384 11.5327 64.2429 12.1128 64.2429 12.8906V13.4092C64.2429 14.187 64.6121 14.7627 65.3328 14.7627C66.0447 14.7627 66.4094 14.1914 66.4094 13.4092V12.8906C66.4094 12.1128 66.0271 11.5327 65.3328 11.5327ZM69.9163 15.5405C69.0154 15.5405 68.3958 14.9868 68.3958 14.1211C68.3958 13.2993 68.967 12.7456 70.0393 12.7456H71.2126V12.3105C71.2126 11.7788 70.8743 11.5283 70.3381 11.5283C69.8108 11.5283 69.5735 11.748 69.4988 12.0557H68.5715C68.6287 11.2778 69.2131 10.7549 70.3689 10.7549C71.3621 10.7549 72.1838 11.168 72.1838 12.3237V15.4702H71.2566V14.8682H71.2126C71.0061 15.2241 70.6018 15.5405 69.9163 15.5405ZM70.2195 14.7847C70.7732 14.7847 71.2126 14.4067 71.2126 13.9014V13.4004H70.1931C69.6262 13.4004 69.3757 13.686 69.3757 14.0728C69.3757 14.5562 69.78 14.7847 70.2195 14.7847ZM75.1897 10.7637C75.8445 10.7637 76.3455 11.0537 76.5256 11.5239H76.574V9.15527H77.5496V15.4702H76.6003V14.7275H76.552C76.4114 15.1978 75.8533 15.5317 75.1765 15.5317C74.1086 15.5317 73.4143 14.7715 73.4143 13.5454V12.75C73.4143 11.5239 74.1218 10.7637 75.1897 10.7637ZM75.4622 11.5635C74.8118 11.5635 74.4075 12.0469 74.4075 12.8906V13.4004C74.4075 14.2485 74.8162 14.7319 75.4841 14.7319C76.1433 14.7319 76.574 14.2529 76.574 13.4619V12.7588C76.574 12.0425 76.1038 11.5635 75.4622 11.5635ZM82.9065 10.7461C84.1194 10.7461 84.9675 11.5327 84.9675 12.8379V13.4399C84.9675 14.7891 84.1194 15.5493 82.9065 15.5493C81.676 15.5493 80.8367 14.7979 80.8367 13.4443V12.8423C80.8367 11.5723 81.6892 10.7461 82.9065 10.7461ZM82.9109 11.5327C82.2166 11.5327 81.821 12.1128 81.821 12.8906V13.4092C81.821 14.187 82.1902 14.7627 82.9109 14.7627C83.6228 14.7627 83.9875 14.1914 83.9875 13.4092V12.8906C83.9875 12.1128 83.6052 11.5327 82.9109 11.5327ZM86.2244 15.4702V10.8252H87.1824V11.6602H87.2307C87.3494 11.2954 87.6877 10.7549 88.6282 10.7549C89.5642 10.7549 90.1926 11.2734 90.1926 12.3325V15.4702H89.217V12.6182C89.217 11.9106 88.8479 11.5854 88.2986 11.5854C87.5779 11.5854 87.2 12.1392 87.2 12.8906V15.4702H86.2244ZM93.9675 10.856V9.6958H94.9211V10.856H95.9626V11.6206H94.9211V14.0859C94.9211 14.5913 95.1101 14.7319 95.6331 14.7319C95.7649 14.7319 95.9407 14.7231 96.0154 14.7144V15.4614C95.9363 15.4746 95.6111 15.501 95.3914 15.501C94.262 15.501 93.9543 15.0967 93.9543 14.165V11.6206H93.2468V10.856H93.9675ZM97.1931 15.4702V9.15527H98.1643V11.6602H98.2126C98.3137 11.3306 98.6917 10.7549 99.6233 10.7549C100.529 10.7549 101.175 11.2778 101.175 12.3369V15.4702H100.203V12.6226C100.203 11.915 99.8123 11.5854 99.2585 11.5854C98.5598 11.5854 98.1643 12.1348 98.1643 12.8906V15.4702H97.1931ZM104.448 15.5493C103.183 15.5493 102.396 14.7715 102.396 13.4619V12.8335C102.396 11.5151 103.258 10.7461 104.391 10.7461C105.556 10.7461 106.378 11.5547 106.378 12.8335V13.3784H103.363V13.6069C103.363 14.2749 103.759 14.7671 104.444 14.7671C104.954 14.7671 105.305 14.5254 105.371 14.2354H106.325C106.268 14.7715 105.701 15.5493 104.448 15.5493ZM103.363 12.7412H105.424V12.6797C105.424 11.981 105.015 11.5151 104.396 11.5151C103.776 11.5151 103.363 11.981 103.363 12.6797V12.7412Z" fill="white"/>
<path d="M38.8997 31.4702H36.8694L41.0002 19.4731H43.2327L47.3547 31.4702H45.2454L44.1819 28.1479H39.9719L38.8997 31.4702ZM42.1252 21.5474H42.0461L40.4202 26.6187H43.7336L42.1252 21.5474ZM52.958 31.6021C51.7539 31.6021 50.8398 31.0308 50.3476 30.1782H50.2773V34.5552H48.3261V22.1802H50.2246V23.5425H50.2949C50.8047 22.6548 51.7539 22.0571 53.0019 22.0571C55.0849 22.0571 56.5703 23.6304 56.5703 26.4077V27.2339C56.5703 29.9937 55.1025 31.6021 52.958 31.6021ZM52.5097 29.9937C53.749 29.9937 54.5927 29.0005 54.5927 27.1284V26.478C54.5927 24.6763 53.8017 23.6479 52.4746 23.6479C51.1123 23.6479 50.2597 24.7554 50.2597 26.4692V27.1284C50.2597 28.8862 51.1211 29.9937 52.5097 29.9937ZM62.8766 31.6021C61.6725 31.6021 60.7585 31.0308 60.2663 30.1782H60.196V34.5552H58.2448V22.1802H60.1433V23.5425H60.2136C60.7233 22.6548 61.6725 22.0571 62.9206 22.0571C65.0036 22.0571 66.489 23.6304 66.489 26.4077V27.2339C66.489 29.9937 65.0212 31.6021 62.8766 31.6021ZM62.4284 29.9937C63.6677 29.9937 64.5114 29.0005 64.5114 27.1284V26.478C64.5114 24.6763 63.7204 23.6479 62.3933 23.6479C61.0309 23.6479 60.1784 24.7554 60.1784 26.4692V27.1284C60.1784 28.8862 61.0397 29.9937 62.4284 29.9937ZM70.5324 28.1392H72.4835C72.5714 29.1763 73.4855 30.064 75.1818 30.064C76.7374 30.064 77.6603 29.3345 77.6603 28.2007C77.6603 27.2866 77.045 26.7944 75.7618 26.4868L73.7931 25.9946C72.2462 25.6343 70.8575 24.7114 70.8575 22.7603C70.8575 20.4663 72.8615 19.2095 75.1906 19.2095C77.5197 19.2095 79.462 20.4663 79.506 22.7075H77.59C77.5021 21.688 76.7199 20.8442 75.1642 20.8442C73.7931 20.8442 72.8615 21.4946 72.8615 22.6108C72.8615 23.3931 73.4064 23.9556 74.5226 24.2104L76.4825 24.6938C78.2843 25.1333 79.6554 25.9858 79.6554 28.0249C79.6554 30.3804 77.7482 31.7075 75.0324 31.7075C71.6925 31.7075 70.5763 29.7563 70.5324 28.1392ZM82.0331 22.1802V19.9214H83.9491V22.1802H85.7596V23.7446H83.9491V28.7017C83.9491 29.7124 84.327 29.9937 85.3729 29.9937C85.5399 29.9937 85.6981 29.9937 85.8124 29.9761V31.4702C85.6542 31.4966 85.285 31.5317 84.8895 31.5317C82.6307 31.5317 82.0067 30.7231 82.0067 28.8599V23.7446H80.7235V22.1802H82.0331ZM91.0289 22.022C93.7008 22.022 95.1509 23.9028 95.1509 26.4341V27.1812C95.1509 29.8003 93.7095 31.6284 91.0289 31.6284C88.3482 31.6284 86.8892 29.8003 86.8892 27.1812V26.4341C86.8892 23.9116 88.357 22.022 91.0289 22.022ZM91.0289 23.5864C89.5787 23.5864 88.858 24.7729 88.858 26.4604V27.1724C88.858 28.8335 89.5699 30.0552 91.0289 30.0552C92.4879 30.0552 93.191 28.8423 93.191 27.1724V26.4604C93.191 24.7642 92.4791 23.5864 91.0289 23.5864ZM96.7991 31.4702V22.1802H98.7503V23.4019H98.8206C99.0579 22.8218 99.7522 22.0483 101.044 22.0483C101.299 22.0483 101.519 22.0659 101.703 22.1011V23.8237C101.536 23.7798 101.194 23.7534 100.868 23.7534C99.304 23.7534 98.7766 24.7202 98.7766 25.9683V31.4702H96.7991ZM106.437 31.6284C103.949 31.6284 102.367 29.9849 102.367 27.2339V26.2935C102.367 23.7007 103.914 22.022 106.357 22.022C108.836 22.022 110.33 23.7622 110.33 26.3813V27.269H104.292V27.4888C104.292 29.0532 105.136 30.0903 106.463 30.0903C107.456 30.0903 108.133 29.5981 108.37 28.7983H110.225C109.943 30.3013 108.73 31.6284 106.437 31.6284ZM104.292 25.9067H108.423V25.8892C108.423 24.5708 107.605 23.5337 106.366 23.5337C105.109 23.5337 104.292 24.5708 104.292 25.8892V25.9067Z" fill="white"/>
</svg>
