<svg width="95" height="94" viewBox="0 0 95 94" fill="none" xmlns="http://www.w3.org/2000/svg">
<circle cx="47.3947" cy="46.9788" r="46.631" fill="#4D1717" fill-opacity="0.12"/>
<path d="M47.3927 24.7736C35.1576 24.7736 25.1875 34.7437 25.1875 46.9788C25.1875 59.2139 35.1576 69.1841 47.3927 69.1841C59.6278 69.1841 69.598 59.2139 69.598 46.9788C69.598 34.7437 59.6278 24.7736 47.3927 24.7736ZM58.0068 41.8716L45.4165 54.462C45.1056 54.7729 44.6837 54.9505 44.2396 54.9505C43.7955 54.9505 43.3736 54.7729 43.0627 54.462L36.7786 48.1779C36.1347 47.534 36.1347 46.4681 36.7786 45.8241C37.4226 45.1802 38.4884 45.1802 39.1324 45.8241L44.2396 50.9314L55.6531 39.5179C56.297 38.8739 57.3629 38.8739 58.0068 39.5179C58.6508 40.1618 58.6508 41.2055 58.0068 41.8716Z" fill="#4D1717"/>
</svg>
