<svg width="94" height="94" viewBox="0 0 94 94" fill="none" xmlns="http://www.w3.org/2000/svg">
<circle cx="47.3046" cy="47.1769" r="22.205" fill="#4D1717"/>
<circle cx="47.3048" cy="47.1769" r="46.631" fill="#4D1717" fill-opacity="0.12"/>
<path d="M38.3047 50.927V43.427C38.3047 42.8965 38.5154 42.3878 38.8905 42.0128C39.2655 41.6377 39.7743 41.427 40.3047 41.427H48.8047C49.3351 41.427 49.8438 41.6377 50.2189 42.0128C50.594 42.3878 50.8047 42.8965 50.8047 43.427V50.927C50.8047 51.4574 50.594 51.9661 50.2189 52.3412C49.8438 52.7163 49.3351 52.927 48.8047 52.927H40.3047C39.7743 52.927 39.2655 52.7163 38.8905 52.3412C38.5154 51.9661 38.3047 51.4574 38.3047 50.927ZM55.4727 42.168L51.4727 45.731C51.42 45.7778 51.3777 45.8352 51.3488 45.8995C51.3198 45.9638 51.3048 46.0335 51.3047 46.104V47.882C51.3048 47.9525 51.3198 48.0222 51.3488 48.0864C51.3777 48.1507 51.42 48.2082 51.4727 48.255L55.4727 51.818C55.5448 51.882 55.6338 51.9238 55.7291 51.9384C55.8243 51.9529 55.9218 51.9397 56.0097 51.9001C56.0976 51.8606 56.1722 51.7966 56.2245 51.7156C56.2769 51.6347 56.3047 51.5404 56.3047 51.444V42.542C56.3047 42.4456 56.2769 42.3513 56.2245 42.2703C56.1722 42.1894 56.0976 42.1253 56.0097 42.0858C55.9218 42.0463 55.8243 42.033 55.7291 42.0476C55.6338 42.0622 55.5448 42.104 55.4727 42.168Z" stroke="white" stroke-width="1.5" stroke-linecap="round" stroke-linejoin="round"/>
</svg>
