<svg width="129" height="30" viewBox="0 0 129 30" fill="none" xmlns="http://www.w3.org/2000/svg">
<path d="M11.3089 5.81659C10.6849 5.81659 10.2082 6.08526 9.87888 6.62259C9.72288 6.86526 9.64488 7.14259 9.64488 7.45459V21.6766C9.64488 24.0166 9.04688 25.8366 7.85088 27.1366C6.75888 28.3153 5.47621 28.9046 4.00288 28.9046C2.85888 28.9046 1.69754 28.5839 0.518875 27.9426L0.596875 27.6826C0.926208 27.7519 1.23821 27.7866 1.53287 27.7866C2.24354 27.7866 2.87621 27.6046 3.43088 27.2406C4.97354 26.2699 5.74488 24.3893 5.74488 21.5986V7.45459C5.72754 6.81326 5.45021 6.33659 4.91288 6.02459C4.65288 5.88592 4.37554 5.81659 4.08088 5.81659H3.74288V5.55659H11.6469V5.81659H11.3089ZM36.3377 0.27859C36.5631 0.27859 36.7971 0.287257 37.0397 0.30459V0.564591C34.9944 0.720591 33.5211 1.69126 32.6197 3.47659C32.0304 4.63792 31.7357 6.11126 31.7357 7.89659V17.1786C31.7011 19.3626 30.9991 21.0699 29.6297 22.3006C28.2604 23.5139 26.3017 24.1206 23.7537 24.1206C21.2231 24.1206 19.2037 23.4966 17.6957 22.2486C16.1877 20.9833 15.4424 19.3019 15.4597 17.2046V7.09059C15.4597 6.72659 15.3211 6.42326 15.0437 6.18059C14.7837 5.93792 14.4631 5.81659 14.0817 5.81659H13.6657V5.55659H21.1537V5.81659H20.7377C20.2004 5.81659 19.8017 6.02459 19.5417 6.44059C19.4204 6.63126 19.3597 6.83926 19.3597 7.06459V16.9966C19.3597 18.8339 19.8364 20.2899 20.7897 21.3646C21.7431 22.4393 22.9997 22.9766 24.5597 22.9766C24.5771 22.9766 24.5857 22.9766 24.5857 22.9766C24.5857 22.9766 24.5944 22.9766 24.6117 22.9766C26.1544 22.9766 27.4197 22.4739 28.4077 21.4686C29.3957 20.4633 29.8897 19.0853 29.8897 17.3346V7.89659C29.8897 5.55659 30.5051 3.70192 31.7357 2.33259C32.9837 0.963257 34.5177 0.27859 36.3377 0.27859ZM36.5514 16.3726C35.8581 17.4819 35.5114 18.6173 35.5114 19.7786C35.5114 21.0439 35.9708 22.1966 36.8894 23.2366C37.3921 23.8259 38.0248 24.2853 38.7874 24.6146C39.5674 24.9439 40.4168 25.1086 41.3354 25.1086C42.2541 25.1086 43.0774 24.9353 43.8054 24.5886C45.2614 23.8779 45.9894 22.7166 45.9894 21.1046C45.9894 20.4979 45.7814 19.8566 45.3654 19.1806C44.9668 18.5046 44.3601 17.8979 43.5454 17.3606L39.1254 14.3966C37.4094 13.3219 36.5514 11.9353 36.5514 10.2366C36.5514 10.0633 36.5601 9.88992 36.5774 9.71659C36.6814 8.38192 37.2101 7.29859 38.1634 6.46659C39.1341 5.61726 40.4254 5.19259 42.0374 5.19259C43.0254 5.19259 44.2214 5.27926 45.6254 5.45259H47.2374L46.8994 9.27459H46.6654C46.6481 8.37326 46.3014 7.65392 45.6254 7.11659C44.9494 6.56192 44.0568 6.28459 42.9474 6.28459C41.5954 6.28459 40.6161 6.69192 40.0094 7.50659C39.7148 7.92259 39.5674 8.37326 39.5674 8.85859C39.5674 9.34392 39.7148 9.75992 40.0094 10.1066C40.3041 10.4359 40.7721 10.7999 41.4134 11.1986L46.2754 14.3706C47.2634 15.0119 48.0348 15.7659 48.5894 16.6326C49.2481 17.6553 49.5774 18.7039 49.5774 19.7786C49.5774 20.4719 49.4301 21.2086 49.1354 21.9886C48.8581 22.7513 48.3901 23.4619 47.7314 24.1206C47.0901 24.7793 46.2581 25.3166 45.2354 25.7326C44.2128 26.1486 43.0774 26.3566 41.8294 26.3566C40.5988 26.3566 39.4808 26.1399 38.4754 25.7066C36.6208 24.9266 35.4421 23.5659 34.9394 21.6246C34.8354 21.2086 34.7834 20.7753 34.7834 20.3246C34.7834 18.8686 35.2948 17.4906 36.3174 16.1906L36.5514 16.3726ZM49.6566 11.6146C48.8073 10.7999 48.3826 9.92459 48.3826 8.98859C48.3826 8.26059 48.6166 7.62792 49.0846 7.09059C49.9686 6.05059 51.208 5.53059 52.8026 5.53059H65.0486C65.8113 5.51326 66.4786 5.45259 67.0506 5.34859C67.6226 5.22726 67.9866 5.13192 68.1426 5.06259V9.58659H67.8826V9.27459C67.8826 8.49459 67.6486 7.86192 67.1806 7.37659C66.7126 6.89126 66.08 6.63992 65.2826 6.62259H61.7726V21.8846C61.8073 22.5086 62.0933 22.9766 62.6306 23.2886C62.8733 23.4273 63.142 23.4966 63.4366 23.4966H63.7746V23.7566H55.8706V23.4966H56.2086C56.6593 23.4966 57.0406 23.3406 57.3526 23.0286C57.682 22.7166 57.8553 22.3439 57.8726 21.9106V6.62259H52.8026C52.092 6.62259 51.468 6.75259 50.9306 7.01259C49.8386 7.53259 49.2926 8.34726 49.2926 9.45659C49.2926 10.1153 49.5006 10.7913 49.9166 11.4846L49.6566 11.6146ZM66.7189 4.04859C66.9963 4.03126 67.4383 4.02259 68.0449 4.02259C68.6343 4.02259 69.4143 4.15259 70.3849 4.41259C71.3729 4.65526 72.2829 5.04526 73.1149 5.58259C73.9469 6.11992 74.7096 6.76992 75.4029 7.53259C76.6856 8.95392 77.6909 10.6613 78.4189 12.6546C79.4589 9.69059 80.8109 7.41992 82.4749 5.84259C83.7403 4.64659 85.1356 4.04859 86.6609 4.04859C86.7303 4.04859 86.7996 4.04859 86.8689 4.04859V4.30859C86.0023 4.32592 85.1009 4.78526 84.1649 5.68659C83.2463 6.57059 82.4403 7.64526 81.7469 8.91059C81.0536 10.1759 80.4643 11.4933 79.9789 12.8626C79.5109 14.2319 79.2336 15.4193 79.1469 16.4246V21.8586C79.1469 22.2919 79.3029 22.6733 79.6149 23.0026C79.9443 23.3319 80.3429 23.4966 80.8109 23.4966H81.1489V23.7566H73.2449V23.4966H73.5829C74.0336 23.4966 74.4149 23.3406 74.7269 23.0286C75.0563 22.6993 75.2296 22.3093 75.2469 21.8586V16.3986C75.0389 14.5266 74.4149 12.5419 73.3749 10.4446C72.1789 8.01792 70.8356 6.29326 69.3449 5.27059C68.4783 4.66392 67.6029 4.34326 66.7189 4.30859V4.04859ZM86.4477 11.6146C85.5983 10.7999 85.1737 9.92459 85.1737 8.98859C85.1737 8.26059 85.4077 7.62792 85.8757 7.09059C86.7597 6.05059 87.999 5.53059 89.5937 5.53059H101.84C102.602 5.51326 103.27 5.45259 103.842 5.34859C104.414 5.22726 104.778 5.13192 104.934 5.06259V9.58659H104.674V9.27459C104.674 8.49459 104.44 7.86192 103.972 7.37659C103.504 6.89126 102.871 6.63992 102.074 6.62259H98.5637V21.8846C98.5983 22.5086 98.8843 22.9766 99.4217 23.2886C99.6643 23.4273 99.933 23.4966 100.228 23.4966H100.566V23.7566H92.6617V23.4966H92.9997C93.4503 23.4966 93.8317 23.3406 94.1437 23.0286C94.473 22.7166 94.6463 22.3439 94.6637 21.9106V6.62259H89.5937C88.883 6.62259 88.259 6.75259 87.7217 7.01259C86.6297 7.53259 86.0837 8.34726 86.0837 9.45659C86.0837 10.1153 86.2917 10.7913 86.7077 11.4846L86.4477 11.6146ZM128.692 28.5146C126.803 29.4679 124.888 29.6239 122.946 28.9826C120.884 28.3239 119.107 26.9199 117.616 24.7706C116.819 23.6266 116.134 22.3006 115.562 20.7926L114.73 18.5826H108.594L107.216 21.8586C107.13 22.0839 107.086 22.2659 107.086 22.4046C107.086 22.5433 107.112 22.6993 107.164 22.8726C107.234 23.0286 107.364 23.1759 107.554 23.3146C107.762 23.4359 107.988 23.4966 108.23 23.4966H108.438V23.7566H102.874V23.4966H103.108C103.507 23.4966 103.897 23.3839 104.278 23.1586C104.677 22.9159 105.006 22.5606 105.266 22.0926L111.064 8.85859C110.388 7.33326 109.669 6.28459 108.906 5.71259C108.265 5.22726 107.65 4.98459 107.06 4.98459C106.488 4.98459 105.951 5.07126 105.448 5.24459L105.396 4.98459C106.644 4.34326 107.84 4.02259 108.984 4.02259C110.406 4.02259 111.68 4.57726 112.806 5.68659C113.916 6.77859 114.895 8.35592 115.744 10.4186L119.514 19.7266C120.936 23.2453 122.392 25.6633 123.882 26.9806C124.489 27.5179 125.113 27.8906 125.754 28.0986C126.396 28.3066 126.933 28.4106 127.366 28.4106C127.817 28.4106 128.25 28.3586 128.666 28.2546L128.692 28.5146ZM109.036 17.4646H114.34L112.52 12.6546C112.434 12.4119 112.312 12.0826 112.156 11.6666C112 11.2333 111.896 10.9299 111.844 10.7566L109.036 17.4646Z" fill="#07683B"/>
</svg>
