<svg width="121" height="41" viewBox="0 0 121 41" fill="none" xmlns="http://www.w3.org/2000/svg">
<rect x="1.1936" y="1.47021" width="119" height="39" rx="5.5" fill="black"/>
<rect x="1.1936" y="1.47021" width="119" height="39" rx="5.5" stroke="#A6A6A6"/>
<path d="M18.4984 20.4319L8.7832 30.9761C8.78412 30.978 8.78412 30.9808 8.78503 30.9827C9.08341 32.1276 10.1054 32.9702 11.319 32.9702C11.8044 32.9702 12.2598 32.8358 12.6503 32.6007L12.6813 32.582L23.6165 26.1295L18.4984 20.4319Z" fill="#EA4335"/>
<path d="M28.3268 18.6364L28.3176 18.6299L23.5965 15.8314L18.2776 20.6715L23.6156 26.1284L28.3113 23.358C29.1343 22.9026 29.6937 22.0152 29.6937 20.9925C29.6937 19.9754 29.1425 19.0927 28.3268 18.6364Z" fill="#FBBC04"/>
<path d="M8.78303 10.9635C8.72463 11.1837 8.6936 11.4151 8.6936 11.654V30.2865C8.6936 30.5254 8.72463 30.7568 8.78394 30.9761L18.8322 20.7015L8.78303 10.9635Z" fill="#4285F4"/>
<path d="M18.5703 20.9702L23.598 15.8297L12.6756 9.35381C12.2787 9.11027 11.8151 8.9703 11.3197 8.9703C10.1061 8.9703 9.08225 9.81477 8.78387 10.9606C8.78387 10.9616 8.78296 10.9625 8.78296 10.9634L18.5703 20.9702Z" fill="#34A853"/>
<path d="M44.3036 12.6802C44.3036 13.6802 44.0069 14.4769 43.4136 15.0702C42.7469 15.7769 41.8703 16.1302 40.7836 16.1302C39.7436 16.1302 38.8636 15.7702 38.1436 15.0502C37.4236 14.3302 37.0636 13.4435 37.0636 12.3902C37.0636 11.3369 37.4236 10.4502 38.1436 9.73021C38.8636 9.01021 39.7436 8.65021 40.7836 8.65021C41.3103 8.65021 41.8069 8.74355 42.2736 8.93021C42.7403 9.11688 43.1236 9.38021 43.4236 9.72021L42.7636 10.3802C42.5436 10.1135 42.2569 9.90688 41.9036 9.76021C41.5569 9.60688 41.1836 9.53021 40.7836 9.53021C40.0036 9.53021 39.3436 9.80021 38.8036 10.3402C38.2703 10.8869 38.0036 11.5702 38.0036 12.3902C38.0036 13.2102 38.2703 13.8935 38.8036 14.4402C39.3436 14.9802 40.0036 15.2502 40.7836 15.2502C41.4969 15.2502 42.0903 15.0502 42.5636 14.6502C43.0369 14.2502 43.3103 13.7002 43.3836 13.0002H40.7836V12.1402H44.2536C44.2869 12.3269 44.3036 12.5069 44.3036 12.6802ZM49.6014 8.81021V9.69021H46.3414V11.9602H49.2814V12.8202H46.3414V15.0902H49.6014V15.9702H45.4214V8.81021H49.6014ZM53.2813 9.69021V15.9702H52.3613V9.69021H50.3613V8.81021H55.2813V9.69021H53.2813ZM59.359 15.9702H58.439V8.81021H59.359V15.9702ZM63.2423 9.69021V15.9702H62.3223V9.69021H60.3223V8.81021H65.2423V9.69021H63.2423ZM75.2146 12.3902C75.2146 13.4502 74.8613 14.3369 74.1546 15.0502C73.4413 15.7702 72.568 16.1302 71.5346 16.1302C70.4946 16.1302 69.6213 15.7702 68.9146 15.0502C68.208 14.3369 67.8546 13.4502 67.8546 12.3902C67.8546 11.3302 68.208 10.4435 68.9146 9.73021C69.6213 9.01021 70.4946 8.65021 71.5346 8.65021C72.5746 8.65021 73.448 9.01355 74.1546 9.74021C74.8613 10.4535 75.2146 11.3369 75.2146 12.3902ZM68.7946 12.3902C68.7946 13.2169 69.0546 13.9002 69.5746 14.4402C70.1013 14.9802 70.7546 15.2502 71.5346 15.2502C72.3146 15.2502 72.9646 14.9802 73.4846 14.4402C74.0113 13.9069 74.2746 13.2235 74.2746 12.3902C74.2746 11.5569 74.0113 10.8735 73.4846 10.3402C72.9646 9.80021 72.3146 9.53021 71.5346 9.53021C70.7546 9.53021 70.1013 9.80021 69.5746 10.3402C69.0546 10.8802 68.7946 11.5635 68.7946 12.3902ZM77.2203 15.9702H76.3003V8.81021H77.4203L80.9003 14.3802H80.9403L80.9003 13.0002V8.81021H81.8203V15.9702H80.8603L77.2203 10.1302H77.1803L77.2203 11.5102V15.9702Z" fill="white"/>
<path d="M94.2117 32.3799H95.8405V21.3684H94.2117V32.3799ZM108.882 25.3348L107.015 30.109H106.959L105.022 25.3348H103.267L106.173 32.0073L104.517 35.7192H106.215L110.694 25.3348H108.882ZM99.6455 31.1291C99.1113 31.1291 98.3675 30.8604 98.3675 30.1936C98.3675 29.3445 99.2937 29.0185 100.094 29.0185C100.81 29.0185 101.148 29.1745 101.582 29.3867C101.456 30.4068 100.586 31.1291 99.6455 31.1291ZM99.8419 25.0944C98.6626 25.0944 97.4405 25.6185 96.936 26.7803L98.3815 27.389C98.6905 26.7803 99.2658 26.5812 99.8698 26.5812C100.712 26.5812 101.568 27.0912 101.582 27.9985V28.1113C101.287 27.9413 100.656 27.6867 99.8838 27.6867C98.3256 27.6867 96.7387 28.5508 96.7387 30.1654C96.7387 31.6391 98.0166 32.5886 99.4482 32.5886C100.544 32.5886 101.148 32.0927 101.527 31.5114H101.582V32.3614H103.154V28.1395C103.154 26.1848 101.709 25.0944 99.8419 25.0944M89.7757 26.6755H87.4591V22.901H89.7757C90.9934 22.901 91.6847 23.9184 91.6847 24.7878C91.6847 25.6414 90.9934 26.6755 89.7757 26.6755ZM89.7338 21.3684H85.8311V32.3799H87.4591V28.2082H89.7338C91.5389 28.2082 93.3135 26.8886 93.3135 24.7878C93.3135 22.687 91.5389 21.3684 89.7338 21.3684M68.4519 31.1308C67.3268 31.1308 66.3849 30.1804 66.3849 28.875C66.3849 27.5555 67.3268 26.59 68.4519 26.59C69.5631 26.59 70.4342 27.5555 70.4342 28.875C70.4342 30.1804 69.5631 31.1308 68.4519 31.1308ZM70.3225 25.9514H70.2658C69.9 25.5119 69.1974 25.1146 68.3114 25.1146C66.4547 25.1146 64.7535 26.76 64.7535 28.875C64.7535 30.9749 66.4547 32.6071 68.3114 32.6071C69.1974 32.6071 69.9 32.2099 70.2658 31.7553H70.3225V32.2953C70.3225 33.7284 69.5631 34.4948 68.3393 34.4948C67.3407 34.4948 66.7218 33.7707 66.4687 33.1603L65.0485 33.7566C65.4562 34.7502 66.5394 35.9702 68.3393 35.9702C70.2518 35.9702 71.8693 34.8348 71.8693 32.068V25.341H70.3225V25.9514ZM72.9944 32.3799H74.6259V21.3675H72.9944V32.3799ZM77.0298 28.7472C76.9879 27.3 78.141 26.5619 78.9702 26.5619C79.6179 26.5619 80.1661 26.8878 80.3485 27.3564L77.0298 28.7472ZM82.0925 27.4982C81.7835 26.6614 80.8408 25.1146 78.9144 25.1146C77.0019 25.1146 75.4132 26.6323 75.4132 28.8609C75.4132 30.9608 76.9879 32.6071 79.0968 32.6071C80.7989 32.6071 81.7835 31.5572 82.1912 30.9467L80.9255 30.0949C80.5039 30.7195 79.9269 31.1308 79.0968 31.1308C78.2675 31.1308 77.6766 30.7477 77.2969 29.9963L82.261 27.9236L82.0925 27.4982ZM42.5437 26.2641V27.8532H46.312C46.1994 28.7472 45.9043 29.4 45.4548 29.8536C44.9057 30.4076 44.0477 31.0181 42.5437 31.0181C40.2227 31.0181 38.4088 29.1304 38.4088 26.7891C38.4088 24.4469 40.2227 22.5601 42.5437 22.5601C43.7954 22.5601 44.7093 23.0569 45.3841 23.6956L46.4953 22.5742C45.5526 21.6661 44.3017 20.9702 42.5437 20.9702C39.3655 20.9702 36.6936 23.5819 36.6936 26.7891C36.6936 29.9963 39.3655 32.6071 42.5437 32.6071C44.2589 32.6071 45.5526 32.039 46.5651 30.9749C47.6065 29.9249 47.9294 28.4495 47.9294 27.2568C47.9294 26.8878 47.9015 26.5478 47.8448 26.2641H42.5437ZM52.2144 31.1308C51.0893 31.1308 50.1186 30.1945 50.1186 28.8609C50.1186 27.5123 51.0893 26.59 52.2144 26.59C53.3387 26.59 54.3094 27.5123 54.3094 28.8609C54.3094 30.1945 53.3387 31.1308 52.2144 31.1308ZM52.2144 25.1146C50.1605 25.1146 48.4872 26.6896 48.4872 28.8609C48.4872 31.0181 50.1605 32.6071 52.2144 32.6071C54.2675 32.6071 55.9408 31.0181 55.9408 28.8609C55.9408 26.6896 54.2675 25.1146 52.2144 25.1146ZM60.3436 31.1308C59.2185 31.1308 58.2478 30.1945 58.2478 28.8609C58.2478 27.5123 59.2185 26.59 60.3436 26.59C61.4688 26.59 62.4386 27.5123 62.4386 28.8609C62.4386 30.1945 61.4688 31.1308 60.3436 31.1308ZM60.3436 25.1146C58.2906 25.1146 56.6173 26.6896 56.6173 28.8609C56.6173 31.0181 58.2906 32.6071 60.3436 32.6071C62.3967 32.6071 64.07 31.0181 64.07 28.8609C64.07 26.6896 62.3967 25.1146 60.3436 25.1146Z" fill="white"/>
</svg>
