<svg width="34" height="12" viewBox="0 0 34 12" fill="none" xmlns="http://www.w3.org/2000/svg">
<path d="M21.9765 0.419373C19.6334 0.419373 17.5395 1.66882 17.5395 3.97726C17.5395 6.62461 21.2531 6.80746 21.2531 8.13741C21.2531 8.6974 20.6293 9.19868 19.5639 9.19868C18.0519 9.19868 16.9218 8.49824 16.9218 8.49824L16.4383 10.8277C16.4383 10.8277 17.7401 11.4194 19.4685 11.4194C22.0303 11.4194 24.0461 10.1086 24.0461 7.76067C24.0461 4.96326 20.317 4.78585 20.317 3.55143C20.317 3.11276 20.8291 2.63211 21.8914 2.63211C23.0901 2.63211 24.068 3.14151 24.068 3.14151L24.5413 0.891635C24.5413 0.891635 23.4772 0.419373 21.9765 0.419373V0.419373ZM0.539158 0.589175L0.482422 0.928779C0.482422 0.928779 1.46818 1.11438 2.35602 1.48462C3.49918 1.90917 3.58061 2.15632 3.77314 2.92396L5.8711 11.2443H8.68342L13.016 0.589175H10.2101L7.42619 7.83363L6.29017 1.69289C6.18599 0.990087 5.65827 0.589175 5.01231 0.589175H0.539158V0.589175ZM14.1443 0.589175L11.9432 11.2443H14.6188L16.8122 0.589175H14.1443V0.589175ZM29.0673 0.589175C28.4221 0.589175 28.0803 0.944542 27.8294 1.56554L23.9094 11.2443H26.7153L27.2582 9.63114H30.6765L31.0066 11.2443H33.4824L31.3226 0.589175H29.0673V0.589175ZM29.4322 3.46785L30.2639 7.46617H28.0357L29.4322 3.46785V3.46785Z" fill="#1434CB"/>
</svg>
